<svg width="20" height="20" viewBox="0 0 20 20" fill="none" xmlns="http://www.w3.org/2000/svg">
<path d="M17 1V5M17 19V9M10 1V13M10 19V17M3 1V3M3 19V7" stroke="#2846E8" stroke-width="2" stroke-linecap="round"/>
<path d="M15 7C15 8.10457 15.8954 9 17 9C18.1046 9 19 8.10457 19 7C19 5.89543 18.1046 5 17 5C15.8954 5 15 5.89543 15 7Z" stroke="#2846E8" stroke-width="2" stroke-linecap="round"/>
<path d="M8 15C8 16.1046 8.89543 17 10 17C11.1046 17 12 16.1046 12 15C12 13.8954 11.1046 13 10 13C8.89543 13 8 13.8954 8 15Z" stroke="#2846E8" stroke-width="2" stroke-linecap="round"/>
<path d="M1 5C1 6.10457 1.89543 7 3 7C4.10457 7 5 6.10457 5 5C5 3.89543 4.10457 3 3 3C1.89543 3 1 3.89543 1 5Z" stroke="#2846E8" stroke-width="2" stroke-linecap="round"/>
</svg>
