<svg width="54" height="54" viewBox="0 0 54 54" fill="none" xmlns="http://www.w3.org/2000/svg">
<path d="M53.7694 1.49574C54.2035 2.54403 54.0247 3.43892 53.2333 4.1804L34.353 23.0881V51.5455C34.353 52.6193 33.8551 53.3736 32.8594 53.8082C32.5275 53.9361 32.2084 54 31.902 54C31.2126 54 30.6382 53.7571 30.1786 53.2713L20.3747 43.4531C19.8896 42.9673 19.647 42.392 19.647 41.7273V23.0881L0.766733 4.1804C-0.0247333 3.43892 -0.203451 2.54403 0.230578 1.49574C0.664608 0.49858 1.41778 0 2.49009 0H51.5099C52.5822 0 53.3354 0.49858 53.7694 1.49574Z" fill="#ACACAC"/>
</svg>
